<svg height="477.60001pt" viewBox="0 0 477.60001 477.60001" width="477.60001pt" xmlns="http://www.w3.org/2000/svg"><path d="m477.601562 238.800781c0 131.886719-106.914062 238.800781-238.800781 238.800781s-238.800781-106.914062-238.800781-238.800781 106.914062-238.800781 238.800781-238.800781 238.800781 106.914062 238.800781 238.800781zm0 0" fill="#382b73"/><path d="m445.398438 238.800781c0 114.101563-92.496094 206.597657-206.597657 206.597657-114.101562 0-206.597656-92.496094-206.597656-206.597657 0-114.101562 92.496094-206.597656 206.597656-206.597656 114.101563 0 206.597657 92.496094 206.597657 206.597656zm0 0" fill="#473080"/><path d="m366.640625 153.792969h-233.003906c-8.648438 0-15.65625 7.011719-15.65625 15.660156v109.535156l-10.976563 3.710938c-1.125.488281-2.199218 1.0625-3.226562 1.691406-6.613282 4.042969-11.15625 10.855469-12.242188 18.65625l-3.046875 21.941406-1.066406 7.703125c-.082031.578125-.109375 1.148438-.109375 1.710938 0 .140625.007812.28125.011719.417968.019531.46875.058593.929688.125 1.382813.011719.066406.007812.136719.019531.199219l.003906-.035156c.160156 1.003906.429688 1.972656.820313 2.878906 1.871093 4.378906 6.210937 7.511718 11.371093 7.511718h128.351563c4.125 0 7.722656-2.015624 9.957031-5.058593h128.667969c8.648437 0 15.660156-7.007813 15.660156-15.65625v-156.589844c0-8.648437-7.011719-15.660156-15.660156-15.660156zm0 0" fill="#382b73"/><path d="m366.640625 327.699219h-233.003906c-8.648438 0-15.65625-7.011719-15.65625-15.660157v-156.585937c0-8.648437 7.007812-15.660156 15.65625-15.660156h233.003906c8.648437 0 15.660156 7.011719 15.660156 15.660156v156.585937c0 8.648438-7.011719 15.660157-15.660156 15.660157zm0 0" fill="#e43c90"/><path d="m363.300781 318.304688h-226.324219c-5.648437 0-10.230468-4.582032-10.230468-10.230469v-148.65625c0-5.648438 4.582031-10.230469 10.230468-10.230469h226.324219c5.648438 0 10.230469 4.582031 10.230469 10.230469v148.652343c0 5.652344-4.582031 10.234376-10.230469 10.234376zm0 0" fill="#ee5a9c"/><path d="m228.015625 332.757812h-128.351563c-7.503906 0-13.273437-6.632812-12.242187-14.066406l4.113281-29.644531c1.253906-9.019531 7.113282-16.730469 15.46875-20.351563l14.242188-4.808593 5.507812-1.855469c.003906-.003906.003906-.003906.003906-.003906l10.992188-3.714844 5.871094-1.980469h40.4375l13.761718 4.648438 1.355469.457031 21.5 7.257812c8.351563 3.621094 14.214844 11.332032 15.464844 20.351563l1.402344 10.074219 1.652343 11.890625 1.0625 7.679687c1.03125 7.433594-4.738281 14.066406-12.242187 14.066406zm0 0" fill="#e6e7e8"/><path d="m91.539062 293.089844c1.25-9.015625 7.113282-16.726563 15.464844-20.351563l36.617188-12.363281h40.4375l36.617187 12.363281c8.351563 3.621094 14.210938 11.332031 15.464844 20.351563l4.070313 29.3125c.195312-1.195313.222656-2.441406.046874-3.710938l-4.117187-29.644531c-1.253906-9.015625-7.113281-16.730469-15.464844-20.351563l-36.617187-12.367187h-40.4375l-36.617188 12.367187c-8.351562 3.621094-14.214844 11.332032-15.464844 20.351563l-4.117187 29.644531c-.179687 1.269532-.152344 2.515625.042969 3.710938zm0 0" fill="#fff"/><path d="m239.863281 315.839844c-1.511719 5.046875-6.1875 8.824218-11.847656 8.824218h-128.351563c-5.664062 0-10.339843-3.777343-11.847656-8.824218l-.394531 2.851562c-1.035156 7.429688 4.738281 14.0625 12.242187 14.0625h128.347657c7.503906 0 13.277343-6.628906 12.246093-14.0625zm0 0" fill="#d1d3d4"/><path d="m190.15625 258.816406-6.097656-7.203125-20.21875 16.382813-20.21875-16.382813-6.097656 7.203125c-1.257813 2.738282-1.230469 5.894532.074218 8.609375l19.015625 39.519531 7.230469 15.023438 26.242188-54.546875c1.300781-2.714844 1.328124-5.871094.070312-8.605469zm0 0" fill="#e6e7e8"/><path d="m174.152344 332.753906-6.542969-54.785156h-7.539063l-6.546874 54.785156zm0 0" fill="#1caee4"/><path d="m154.492188 324.664062-.96875 8.089844h20.628906l-.964844-8.089844zm0 0" fill="#009add"/><path d="m143.617188 232.410156v13.136719l.003906 6.066406 20.21875 16.382813 20.214844-16.382813.003906-19.203125zm0 0" fill="#f6ca14"/><path d="m163.839844 267.996094-16.136719 20.4375-10.09375-21c-1.316406-2.71875-1.347656-5.882813-.085937-8.628906l6.09375-7.191407zm0 0" fill="#d0d2d3"/><path d="m163.839844 267.996094 16.132812 20.4375 10.09375-21c1.316406-2.71875 1.347656-5.882813.085938-8.628906l-6.097656-7.191407zm0 0" fill="#d0d2d3"/><path d="m170.59375 278.042969-3.890625 3.894531c-1.582031 1.582031-4.148437 1.582031-5.726563 0l-3.890624-3.894531c-1.582032-1.582031-1.582032-4.144531 0-5.726563l.984374-.984375c3.1875-3.1875 8.351563-3.1875 11.539063 0l.988281.984375c1.578125 1.582032 1.578125 4.148438-.003906 5.726563zm0 0" fill="#23c1e6"/><path d="m170.140625 271.867188-4.277344 4.277343c-1.117187 1.117188-2.929687 1.117188-4.050781 0l-4.277344-4.277343-1.289062 1.289062c-1.117188 1.117188-1.117188 2.933594 0 4.050781l5.566406 5.566407c1.121094 1.117187 2.933594 1.117187 4.050781 0l5.570313-5.566407c1.117187-1.117187 1.117187-2.933593 0-4.050781zm0 0" fill="#1cade3"/><path d="m192.816406 206.9375c0 17.121094-3.097656 45.558594-28.976562 45.558594-25.882813 0-28.980469-28.4375-28.980469-45.558594 0-17.125 2.695313-31.003906 28.980469-31.003906s28.976562 13.878906 28.976562 31.003906zm0 0" fill="#fff235"/><path d="m163.839844 244.40625c-23.925782 0-28.382813-24.296875-28.917969-41.496094-.046875 1.320313-.0625 2.660156-.0625 4.027344 0 17.121094 3.097656 45.558594 28.980469 45.558594 25.878906 0 28.976562-28.4375 28.976562-45.558594 0-1.367188-.015625-2.707031-.058594-4.027344-.539062 17.199219-4.996093 41.496094-28.917968 41.496094zm0 0" fill="#fddd3a"/><path d="m141.957031 212.066406c.714844 6.109375-1.707031 11.410156-5.410156 11.84375-3.699219.4375-7.28125-4.164062-8-10.273437-.714844-6.105469 1.707031-11.410157 5.410156-11.84375 3.703125-.433594 7.28125 4.164062 8 10.273437zm0 0" fill="#fff235"/><path d="m185.441406 212.066406c-.714844 6.109375 1.707032 11.410156 5.410156 11.84375 3.699219.4375 7.28125-4.164062 8-10.273437.714844-6.105469-1.707031-11.410157-5.410156-11.84375-3.703125-.433594-7.285156 4.164062-8 10.273437zm0 0" fill="#fff235"/><path d="m136.28125 213.769531c-.375-3.167969-.300781-6.128906.117188-8.539062-.15625 0-.316407.003906-.476563.023437-2.9375.34375-4.902344 4.15625-4.394531 8.515625.511718 4.355469 3.308594 7.613281 6.246094 7.269531.0625-.007812.117187-.027343.179687-.035156-.761719-2.0625-1.355469-4.542968-1.671875-7.234375zm0 0" fill="#fddd3a"/><path d="m191.394531 213.769531c.375-3.167969.300781-6.128906-.117187-8.539062.15625 0 .316406.003906.476562.023437 2.9375.34375 4.902344 4.15625 4.394532 8.515625-.203126 1.742188-.785157 3.484375-1.828126 4.910157-.433593.597656-.957031 1.144531-1.566406 1.566406-.445312.3125-1.332031.878906-1.894531.765625.050781-.371094-.007813-.753907-.164063-1.09375-.042968-.089844-.09375-.179688-.132812-.269531-.359375-.832032.148438-1.914063.324219-2.742188.21875-1.035156.386719-2.085938.507812-3.136719zm0 0" fill="#fddd3a"/><path d="m178.511719 188.839844s-6.230469 9.640625-17.058594 10.53125-18.460937 1.550781-21.472656 6.890625c-3.015625 5.339843.078125 15.398437-2.328125 15.398437-2.398438 0-8.003906-23.046875.304687-39.660156 8.308594-16.613281 24.980469-16 32.691407-13.183594 7.710937 2.820313 10.234374 7.269532 10.234374 11.867188s-2.371093 8.15625-2.371093 8.15625zm0 0" fill="#1cade3"/><path d="m175.359375 171.121094c1.046875 1.742187 1.480469 3.617187 1.480469 5.515625 0 4.597656-2.375 8.160156-2.375 8.160156s-6.230469 9.640625-17.058594 10.53125-18.457031 1.550781-21.46875 6.890625c-1.863281 3.296875-1.398438 8.386719-1.332031 11.804688.894531 4.628906 2.179687 7.636718 3.046875 7.636718 2.402344 0-.6875-10.058594 2.328125-15.398437 3.011719-5.339844 10.644531-6 21.472656-6.890625s17.058594-10.53125 17.058594-10.53125 2.371093-3.558594 2.371093-8.15625c0-3.488282-1.453124-6.894532-5.523437-9.5625zm0 0" fill="#0099dc"/><path d="m180.492188 177.703125s11.230468-1.230469 14.679687 8.269531c4.554687 12.539063-2.207031 35.082032-4.238281 35.082032-2.035156 0 .671875-11.054688-2.390625-20.941407-3.0625-9.890625-10.472657-10.65625-10.472657-10.65625zm0 0" fill="#1cade3"/><path d="m192.585938 196.070312c-3.0625-9.886718-10.472657-10.65625-10.472657-10.65625l1.578125-7.660156c-1.878906-.195312-3.199218-.050781-3.199218-.050781l-2.421876 11.753906s7.410157.765625 10.472657 10.65625c3.0625 9.886719.355469 20.941407 2.386719 20.941407.714843 0 2.019531-2.796876 3.207031-6.96875-.058594-3.941407.546875-11.25-1.550781-18.015626zm0 0" fill="#0099dc"/><path d="m138.769531 184.019531c8.304688-16.613281 24.972657-16 32.6875-13.179687 4.816407 1.757812 7.605469 4.152344 9.023438 6.820312-.96875-3.46875-3.828125-6.652344-9.832031-8.84375-7.710938-2.820312-24.382813-3.429687-32.6875 13.179688-7.152344 14.304687-3.996094 33.382812-1.445313 38.40625-2.289063-6.949219-4.152344-23.578125 2.253906-36.382813zm0 0" fill="#23c1e6"/><path d="m195.171875 185.972656c-3.449219-9.5-14.679687-8.269531-14.679687-8.269531l-.40625 1.976563c2.628906-.070313 10.980468.351562 13.871093 8.3125 3.699219 10.179687-.0625 26.945312-2.695312 32.902343 2.339843-2.027343 8.242187-23 3.910156-34.921875zm0 0" fill="#23c1e6"/><path d="m163.839844 267.996094-17.53125 17.53125-8.699219-18.097656c-1.316406-2.71875-1.347656-5.882813-.085937-8.625l6.097656-7.191407zm0 0" fill="#fff"/><path d="m163.839844 267.996094 17.53125 17.53125 8.695312-18.097656c1.316406-2.71875 1.347656-5.882813.085938-8.625l-6.097656-7.191407zm0 0" fill="#fff"/><g fill="#e43d91"><path d="m298.871094 196.070312c-.261719-.019531-.53125.015626-.792969.015626-.84375 0-1.679687-.019532-2.535156.039062-17.886719 1.246094-32.191407 16.019531-32.90625 33.933594-.441407 11.042968 4.171875 21.011718 11.710937 27.800781 4.9375 4.445313 7.585938 10.902344 7.585938 17.542969v.445312c0 2.1875 1.546875 4.015625 3.609375 4.445313h-.101563v17.339843c0 2.902344 2.351563 5.253907 5.253906 5.253907h2.835938v.53125c0 1.886719 1.527344 3.417969 3.414062 3.417969h2.265626c1.886718 0 3.414062-1.53125 3.414062-3.417969v-.53125h2.835938c2.902343 0 5.253906-2.351563 5.253906-5.253907v-17.339843h-.101563c2.0625-.429688 3.609375-2.257813 3.609375-4.445313v-.792968c0-6.671876 2.945313-12.925782 7.855469-17.441407 7.050781-6.480469 11.46875-15.773437 11.46875-26.105469 0-19.320312-15.457031-35.011718-34.675781-35.4375zm0 0"/><path d="m347.363281 279.472656c-.007812-.097656-.007812-.195312-.027343-.289062-.035157-.199219-.097657-.386719-.15625-.578125-.027344-.082031-.042969-.167969-.074219-.25-.074219-.191407-.171875-.371094-.273438-.550781-.042969-.078126-.074219-.15625-.121093-.230469-.109376-.171875-.242188-.328125-.371094-.484375-.054688-.066406-.097656-.136719-.152344-.199219-.003906 0-.003906.003906-.007812.003906-.035157-.035156-.058594-.078125-.09375-.113281l-6.910157-6.910156c-1.769531-1.765625-4.644531-1.769532-6.410156 0-.035156.035156-.058594.078125-.09375.113281 0-.003906-.003906-.003906-.007813-.007813-.054687.0625-.09375.132813-.144531.195313-.136719.160156-.269531.316406-.378906.488281-.042969.074219-.078125.152344-.117187.230469-.101563.179687-.203126.363281-.277344.554687-.027344.078126-.042969.160157-.070313.242188-.0625.195312-.125.386719-.160156.585938-.015625.09375-.015625.1875-.027344.28125-.023437.191406-.046875.378906-.046875.570312.003906.109375.023438.222656.03125.332031.015625.171875.023438.347657.058594.515625.023438.132813.074219.261719.113281.390625.046875.148438.074219.292969.136719.4375.066406.160157.15625.308594.242188.460938.054687.105469.101562.214843.167968.3125.164063.25.351563.484375.574219.703125l6.910156 6.914062c.882813.882813 2.042969 1.324219 3.203125 1.324219s2.320313-.441406 3.207032-1.324219c.214843-.21875.40625-.457031.570312-.707031.0625-.09375.105469-.195313.160156-.292969.085938-.160156.1875-.316406.253906-.480468.054688-.136719.085938-.277344.128907-.417969.039062-.136719.09375-.269531.117187-.410157.035156-.164062.042969-.335937.054688-.503906.011718-.113281.03125-.230468.03125-.34375.007812-.191406-.015625-.378906-.039063-.5625zm0 0"/><path d="m264.660156 272.550781c-.007812-.09375-.007812-.1875-.027344-.28125-.035156-.199219-.097656-.390625-.15625-.578125-.027343-.082031-.042968-.167968-.074218-.25-.074219-.191406-.171875-.371094-.273438-.554687-.039062-.074219-.074218-.15625-.121094-.230469-.109374-.167969-.238281-.328125-.371093-.484375-.054688-.0625-.09375-.136719-.152344-.199219-.003906.003906-.003906.003906-.007813.007813-.03125-.035157-.054687-.078125-.09375-.113281-1.765624-1.769532-4.640624-1.765626-6.40625 0l-6.914062 6.910156c-.035156.035156-.054688.078125-.089844.113281-.003906 0-.003906-.003906-.007812-.003906-.058594.0625-.09375.132812-.148438.191406-.132812.160156-.265625.316406-.375.488281-.046875.074219-.078125.152344-.121094.230469-.097656.179687-.199218.363281-.273437.554687-.027344.078126-.042969.164063-.070313.242188-.0625.195312-.125.386719-.160156.585938-.015625.09375-.015625.1875-.027344.28125-.023437.1875-.046874.378906-.046874.566406 0 .113281.023437.222656.03125.335937.015624.171875.023437.34375.054687.515625.03125.136719.078125.265625.121094.398438.039062.144531.074219.285156.128906.425781.066406.164063.160156.316406.246094.472656.058593.101563.101562.207031.164062.304688.164063.25.355469.484375.574219.703125.882812.882812 2.042969 1.328125 3.203125 1.328125s2.320313-.445313 3.203125-1.328125l6.914062-6.910156c.21875-.21875.40625-.457032.574219-.703126.066407-.101562.109375-.210937.167969-.316406.082031-.152344.175781-.300781.242188-.460937.058593-.140625.089843-.28125.128906-.425781.042968-.132813.09375-.265626.121094-.402344.03125-.167969.039062-.339844.054687-.511719.011719-.113281.03125-.222656.03125-.335937.003906-.1875-.019531-.375-.042969-.566407zm0 0"/><path d="m249.320312 188.191406c-.097656.179688-.195312.359375-.269531.546875-.03125.082031-.046875.164063-.074219.246094-.0625.195313-.121093.386719-.160156.582031-.015625.09375-.015625.191406-.023437.289063-.023438.1875-.050781.375-.046875.566406 0 .113281.023437.226563.03125.339844.015625.171875.023437.34375.054687.511719.027344.132812.078125.265624.117188.398437.042969.140625.074219.289063.128906.425781.070313.167969.164063.324219.257813.480469.050781.101563.09375.203125.152343.296875.164063.246094.359375.484375.574219.703125l6.914062 6.910156c.882813.886719 2.042969 1.324219 3.203126 1.324219 1.160156 0 2.320312-.441406 3.203124-1.324219.855469-.855469 1.328126-1.992187 1.328126-3.203125 0-.296875-.027344-.585937-.085938-.867187-.023438-.140625-.078125-.269531-.117188-.40625-.039062-.136719-.070312-.28125-.125-.410157-.066406-.167968-.160156-.320312-.246093-.476562-.050781-.09375-.089844-.191406-.148438-.28125-.101562-.15625-.222656-.300781-.347656-.445312-.054687-.070313-.097656-.140626-.160156-.207032-.003907 0-.003907.003906-.003907.003906-.035156-.035156-.058593-.078124-.09375-.113281l-6.914062-6.910156c-.855469-.859375-1.992188-1.328125-3.203125-1.328125s-2.347656.46875-3.203125 1.328125c-.035156.035156-.058594.074219-.09375.113281-.003906-.003906-.003906-.003906-.007812-.007812-.058594.0625-.09375.132812-.148438.195312-.132812.160156-.265625.316406-.375.488282-.042969.070312-.074219.152343-.117188.230468zm0 0"/><path d="m248.929688 234.289062c-.03125-.136718-.078126-.261718-.121094-.394531-.042969-.144531-.074219-.292969-.132813-.433593-.066406-.160157-.15625-.3125-.242187-.464844-.050782-.09375-.09375-.191406-.152344-.28125-.101562-.15625-.222656-.292969-.339844-.433594-.054687-.066406-.097656-.136719-.152344-.199219-.003906.003907-.003906.003907-.007812.003907-.828125-.882813-1.992188-1.441407-3.296875-1.441407h-9.773437c-1.304688 0-2.46875.5625-3.296876 1.441407-.003906 0-.003906 0-.003906-.003907-.058594.0625-.101562.136719-.15625.203125-.121094.140625-.238281.273438-.339844.429688-.058593.089844-.101562.191406-.152343.289062-.085938.148438-.175781.296875-.242188.457032-.058593.140624-.089843.285156-.132812.433593-.039063.132813-.089844.257813-.117188.394531-.058593.285157-.089843.585938-.089843.890626 0 2.496093 2.03125 4.53125 4.53125 4.53125h9.773437c2.5 0 4.535156-2.03125 4.535156-4.53125 0-.308594-.035156-.605469-.089843-.890626zm0 0"/><path d="m365.886719 234.289062c-.027344-.136718-.078125-.261718-.117188-.394531-.046875-.144531-.078125-.292969-.136719-.433593-.066406-.160157-.15625-.308594-.238281-.457032-.054687-.097656-.097656-.199218-.15625-.289062-.101562-.15625-.21875-.292969-.339843-.433594-.050782-.0625-.097657-.136719-.15625-.199219 0 .003907-.003907.003907-.003907.003907-.828125-.882813-1.996093-1.441407-3.296875-1.441407h-9.777344c-1.300781 0-2.464843.5625-3.292968 1.441407-.003906 0-.003906 0-.007813-.003907-.058593.0625-.101562.136719-.15625.199219-.117187.140625-.234375.277344-.335937.433594-.0625.089844-.105469.191406-.15625.289062-.085938.148438-.175782.296875-.242188.457032-.058594.140624-.089844.285156-.132812.433593-.039063.132813-.089844.257813-.117188.394531-.058594.285157-.089844.585938-.089844.890626 0 2.496093 2.03125 4.53125 4.53125 4.53125h9.777344c2.496094 0 4.53125-2.03125 4.53125-4.53125.003906-.308594-.027344-.605469-.085937-.890626zm0 0"/><path d="m332.011719 195.117188c-.085938.15625-.175781.3125-.242188.476562-.054687.132812-.085937.277344-.128906.417969-.039063.132812-.089844.265625-.117187.402343-.054688.285157-.085938.574219-.085938.867188 0 1.210938.472656 2.347656 1.328125 3.203125.882813.886719 2.042969 1.324219 3.203125 1.324219s2.324219-.441406 3.207031-1.324219l6.910157-6.910156c.21875-.21875.410156-.453125.574218-.703125.0625-.09375.101563-.199219.15625-.296875.085938-.160157.1875-.3125.253906-.480469.054688-.136719.085938-.28125.128907-.417969.039062-.136719.09375-.269531.117187-.40625.035156-.167969.042969-.339843.058594-.511719.007812-.117187.03125-.226562.03125-.339843 0-.191407-.023438-.378907-.046875-.566407-.007813-.09375-.007813-.191406-.027344-.285156-.035156-.195312-.097656-.386718-.160156-.578125-.027344-.082031-.042969-.167969-.070313-.246093-.074218-.191407-.171874-.371094-.273437-.550782-.042969-.078125-.074219-.15625-.121094-.230468-.109375-.171876-.242187-.332032-.378906-.488282-.050781-.066406-.089844-.132812-.144531-.195312-.003906.003906-.003906.003906-.007813.007812-.035156-.039062-.058593-.078125-.09375-.113281-.855469-.859375-1.992187-1.328125-3.203125-1.328125-1.210937 0-2.347656.46875-3.203125 1.328125l-6.914062 6.910156c-.035157.035157-.058594.078125-.09375.113281-.003907 0-.003907-.003906-.003907-.003906-.058593.0625-.105468.136719-.160156.203125-.121094.148438-.246094.292969-.347656.449219-.050781.085938-.09375.183594-.144531.273438zm0 0"/><path d="m298.074219 186.117188c2.5 0 4.535156-2.03125 4.535156-4.53125v-9.777344c0-2.496094-2.035156-4.53125-4.535156-4.53125-2.496094 0-4.53125 2.035156-4.53125 4.53125v9.777344c.003906 2.5 2.035156 4.53125 4.53125 4.53125zm0 0"/></g><path d="m333.546875 225.503906c0-20.429687-17.269531-36.820312-38.007813-35.382812-17.886718 1.246094-32.191406 16.019531-32.90625 33.933594-.4375 11.042968 4.175782 21.011718 11.714844 27.800781 4.9375 4.445312 7.585938 10.898437 7.585938 17.542969v.441406c0 2.511718 2.035156 4.546875 4.546875 4.546875h23.191406c2.511719 0 4.546875-2.035157 4.546875-4.546875v-.789063c0-6.671875 2.949219-12.929687 7.859375-17.445312 7.050781-6.480469 11.46875-15.769531 11.46875-26.101563zm0 0" fill="#e6e7e8"/><path d="m318.085938 225.503906c0-20.429687-9.742188-36.820312-21.4375-35.382812-10.089844 1.246094-18.160157 16.019531-18.5625 33.933594-.246094 11.042968 2.355468 21.011718 6.605468 27.800781 2.785156 4.445312 4.28125 10.898437 4.28125 17.542969v.441406c0 2.511718 1.148438 4.546875 2.566406 4.546875h13.082032c1.414062 0 2.566406-2.035157 2.566406-4.546875v-.789063c0-6.671875 1.660156-12.929687 4.433594-17.445312 3.972656-6.480469 6.464844-15.769531 6.464844-26.101563zm0 0" fill="#fff"/><path d="m305.457031 296.882812h-14.761719c-2.902343 0-5.253906-2.351562-5.253906-5.253906v-17.339844h25.273438v17.339844c-.003906 2.902344-2.355469 5.253906-5.257813 5.253906zm0 0" fill="#fddd3a"/><path d="m299.210938 300.828125h-2.265626c-1.886718 0-3.414062-1.527344-3.414062-3.414063v-.53125h9.09375v.53125c0 1.886719-1.527344 3.414063-3.414062 3.414063zm0 0" fill="#e7ad27"/><path d="m285.441406 279.089844h25.273438v3.207031h-25.273438zm0 0" fill="#f6ca14"/><path d="m285.441406 286.910156h25.273438v3.210938h-25.273438zm0 0" fill="#f6ca14"/><path d="m302.609375 165.804688v9.777343c0 2.496094-2.035156 4.53125-4.535156 4.53125-2.496094 0-4.53125-2.03125-4.53125-4.53125v-9.777343c0-2.496094 2.03125-4.53125 4.53125-4.53125s4.535156 2.03125 4.535156 4.53125zm58.835937 58.835937h-9.777343c-2.496094 0-4.53125 2.035156-4.53125 4.53125 0 2.5 2.03125 4.53125 4.53125 4.53125h9.777343c2.496094 0 4.53125-2.03125 4.53125-4.53125 0-2.496094-2.035156-4.53125-4.53125-4.53125zm-116.960937 0h-9.773437c-2.5 0-4.53125 2.035156-4.53125 4.53125 0 2.5 2.03125 4.53125 4.53125 4.53125h9.773437c2.5 0 4.535156-2.03125 4.535156-4.53125 0-2.496094-2.035156-4.53125-4.535156-4.53125zm91.488281-28.835937c1.160156 0 2.320313-.441407 3.203125-1.324219l6.914063-6.910157c1.765625-1.765624 1.765625-4.640624 0-6.410156-.859375-.855468-1.996094-1.324218-3.207032-1.324218-1.207031 0-2.347656.46875-3.203124 1.324218l-6.910157 6.914063c-.859375.855469-1.328125 1.992187-1.328125 3.203125 0 1.210937.472656 2.347656 1.328125 3.203125.878907.882812 2.042969 1.324219 3.203125 1.324219zm-78.996094 68.058593-6.910156 6.910157c-1.765625 1.765624-1.765625 4.640624 0 6.410156.882813.882812 2.042969 1.324218 3.203125 1.324218 1.160157 0 2.324219-.445312 3.203125-1.324218l6.914063-6.914063c1.765625-1.765625 1.765625-4.640625 0-6.40625s-4.644531-1.765625-6.410157 0zm82.199219 0c-1.765625-1.765625-4.640625-1.765625-6.40625 0s-1.765625 4.640625 0 6.40625l6.910157 6.914063c.882812.882812 2.042968 1.324218 3.203124 1.324218 1.160157 0 2.320313-.445312 3.207032-1.328124 1.765625-1.765626 1.765625-4.640626 0-6.40625zm-82.703125-82.703125c-.855468-.855468-1.992187-1.328125-3.203125-1.328125-1.210937 0-2.347656.472657-3.203125 1.328125-1.765625 1.765625-1.765625 4.640625 0 6.40625l6.910156 6.914063c.886719.882812 2.046876 1.324219 3.207032 1.324219s2.320312-.441407 3.203125-1.324219c.855469-.855469 1.328125-1.996094 1.328125-3.203125 0-1.210938-.472656-2.347656-1.328125-3.207032zm0 0" fill="#fddd3a"/><path d="m263.386719 264.078125-6.914063 6.914063c-.882812.882812-2.042968 1.324218-3.203125 1.324218-1.160156 0-2.320312-.441406-3.203125-1.324218-.035156-.035157-.0625-.070313-.097656-.109376-1.664062 1.773438-1.632812 4.570313.097656 6.300782.882813.882812 2.042969 1.324218 3.203125 1.324218 1.160157 0 2.324219-.441406 3.203125-1.324218l6.914063-6.910156c1.730469-1.734376 1.761719-4.527344.097656-6.300782-.035156.035156-.0625.070313-.097656.105469zm0 0" fill="#e7ad27"/><path d="m263.386719 188.289062c-.882813.886719-2.042969 1.324219-3.203125 1.324219s-2.324219-.441406-3.207032-1.324219l-6.910156-6.910156c-.035156-.035156-.0625-.074218-.097656-.109375-1.664062 1.773438-1.632812 4.570313.097656 6.300781l6.910156 6.910157c.886719.886719 2.046876 1.324219 3.207032 1.324219s2.320312-.441407 3.203125-1.324219c.855469-.855469 1.328125-1.992188 1.328125-3.203125 0-1.160156-.4375-2.25-1.230469-3.09375-.03125.035156-.0625.074218-.097656.105468zm0 0" fill="#e7ad27"/><path d="m247.785156 226.074219c-.828125.882812-1.996094 1.4375-3.300781 1.4375h-9.773437c-1.304688 0-2.476563-.554688-3.300782-1.4375-.761718.8125-1.230468 1.898437-1.230468 3.097656 0 2.5 2.03125 4.53125 4.53125 4.53125h9.773437c2.5 0 4.535156-2.03125 4.535156-4.53125 0-1.199219-.472656-2.285156-1.234375-3.097656zm0 0" fill="#e7ad27"/><path d="m346.089844 270.992188c-.886719.882812-2.046875 1.324218-3.207032 1.324218-1.160156 0-2.320312-.441406-3.203124-1.324218l-6.910157-6.910157c-.035156-.035156-.066406-.074219-.097656-.109375-1.664063 1.773438-1.636719 4.570313.097656 6.300782l6.910157 6.914062c.882812.882812 2.042968 1.324219 3.203124 1.324219 1.160157 0 2.320313-.445313 3.207032-1.328125 1.730468-1.730469 1.761718-4.527344.097656-6.300782-.035156.039063-.0625.074219-.097656.109376zm0 0" fill="#e7ad27"/><path d="m361.445312 227.511719h-9.777343c-1.300781 0-2.472657-.554688-3.300781-1.4375-.761719.8125-1.230469 1.898437-1.230469 3.097656 0 2.5 2.03125 4.53125 4.53125 4.53125h9.777343c2.496094 0 4.53125-2.03125 4.53125-4.53125 0-1.199219-.46875-2.285156-1.234374-3.097656-.828126.882812-1.996094 1.4375-3.296876 1.4375zm0 0" fill="#e7ad27"/><path d="m335.972656 195.804688c1.160156 0 2.320313-.441407 3.203125-1.324219l6.914063-6.910157c1.730468-1.730468 1.761718-4.527343.097656-6.300781-.035156.035157-.066406.074219-.097656.109375l-6.914063 6.910156c-.882812.886719-2.042969 1.324219-3.203125 1.324219s-2.320312-.441406-3.203125-1.324219c-.035156-.035156-.066406-.070312-.097656-.105468-.792969.839844-1.230469 1.933594-1.230469 3.09375 0 1.210937.472656 2.347656 1.328125 3.203125.878907.882812 2.042969 1.324219 3.203125 1.324219zm0 0" fill="#e7ad27"/><path d="m298.074219 173.921875c-2.496094 0-4.53125-2.035156-4.53125-4.535156v6.191406c0 2.5 2.03125 4.535156 4.53125 4.535156s4.535156-2.035156 4.535156-4.535156v-6.191406c0 2.5-2.035156 4.535156-4.535156 4.535156zm0 0" fill="#e7ad27"/></svg>